<?xml version="1.0" encoding="UTF-8" standalone="no"?>
<!DOCTYPE svg PUBLIC "-//W3C//DTD SVG 1.1//EN" "http://www.w3.org/Graphics/SVG/1.1/DTD/svg11.dtd">
<!-- Generated by graphviz version 2.40.1 (20161225.0304)
 -->
<!-- Title: %0 Pages: 1 -->
<svg width="543pt" height="810pt" viewBox="0.00 0.00 542.50 810.00" xmlns="http://www.w3.org/2000/svg" xmlns:xlink="http://www.w3.org/1999/xlink">
<g id="graph0" class="graph" transform="scale(1 1) rotate(0) translate(4 806)">
<title>%0</title>
<polygon fill="#ffffff" stroke="transparent" points="-4,4 -4,-806 538.5,-806 538.5,4 -4,4"/>
<!-- block_0 -->
<g id="node1" class="node">
<title>block_0</title>
<polygon fill="none" stroke="#000000" points="492.5,-802 334.5,-802 334.5,-678 492.5,-678 492.5,-802"/>
<polygon fill="none" stroke="#000000" points="344.5,-782 344.5,-796 482.5,-796 482.5,-782 344.5,-782"/>
<text text-anchor="start" x="396.2725" y="-786" font-family="Helvetica,sans-Serif" font-size="10.00" fill="#000000">block_0</text>
<text text-anchor="start" x="344.1685" y="-771" font-family="Helvetica,sans-Serif" font-size="10.00" fill="#000000">let v2: *u32 = stack_alloc.u32 1</text>
<text text-anchor="start" x="344.5" y="-757" font-family="Helvetica,sans-Serif" font-size="10.00" fill="#000000">store.*u32 v2, v0</text>
<text text-anchor="start" x="344.1685" y="-743" font-family="Helvetica,sans-Serif" font-size="10.00" fill="#000000">let v3: *u32 = stack_alloc.u32 1</text>
<text text-anchor="start" x="344.5" y="-729" font-family="Helvetica,sans-Serif" font-size="10.00" fill="#000000">store.*u32 v3, v1</text>
<text text-anchor="start" x="344.5" y="-715" font-family="Helvetica,sans-Serif" font-size="10.00" fill="#000000">let v7: u32 = load.*u32 v3</text>
<text text-anchor="start" x="344.5" y="-701" font-family="Helvetica,sans-Serif" font-size="10.00" fill="#000000">let v8: u1 = gt.u32 130_u32, v7</text>
<text text-anchor="start" x="344.5" y="-687" font-family="Helvetica,sans-Serif" font-size="10.00" fill="#000000">branch_if v8 block_2, block_4</text>
</g>
<!-- block_2 -->
<g id="node2" class="node">
<title>block_2</title>
<polygon fill="none" stroke="#000000" points="440.5,-630 276.5,-630 276.5,-562 440.5,-562 440.5,-630"/>
<polygon fill="none" stroke="#000000" points="286.5,-610 286.5,-624 430.5,-624 430.5,-610 286.5,-610"/>
<text text-anchor="start" x="341.2725" y="-614" font-family="Helvetica,sans-Serif" font-size="10.00" fill="#000000">block_2</text>
<text text-anchor="start" x="286.389" y="-599" font-family="Helvetica,sans-Serif" font-size="10.00" fill="#000000">let v11: *u32 = stack_alloc.u32 1</text>
<text text-anchor="start" x="286.5" y="-585" font-family="Helvetica,sans-Serif" font-size="10.00" fill="#000000">store.*u32 v11, 0_u32</text>
<text text-anchor="start" x="286.5" y="-571" font-family="Helvetica,sans-Serif" font-size="10.00" fill="#000000">branch block_5</text>
</g>
<!-- block_0&#45;&gt;block_2 -->
<g id="edge1" class="edge">
<title>block_0-&gt;block_2</title>
<path fill="none" stroke="#000000" d="M389.6961,-677.677C384.8423,-664.9689 379.832,-651.8512 375.2851,-639.9464"/>
<polygon fill="#000000" stroke="#000000" points="378.4259,-638.3602 371.5882,-630.2672 371.8867,-640.8579 378.4259,-638.3602"/>
<text text-anchor="middle" x="393.778" y="-651" font-family="Helvetica,sans-Serif" font-size="10.00" fill="#000000">True</text>
</g>
<!-- block_4 -->
<g id="node3" class="node">
<title>block_4</title>
<polygon fill="none" stroke="#000000" points="534.5,-391 396.5,-391 396.5,-337 534.5,-337 534.5,-391"/>
<polygon fill="none" stroke="#000000" points="406.5,-371 406.5,-385 524.5,-385 524.5,-371 406.5,-371"/>
<text text-anchor="start" x="448.2725" y="-375" font-family="Helvetica,sans-Serif" font-size="10.00" fill="#000000">block_4</text>
<text text-anchor="start" x="406.1675" y="-360" font-family="Helvetica,sans-Serif" font-size="10.00" fill="#000000">let v32: u32 = load.*u32 v2</text>
<text text-anchor="start" x="406.5" y="-346" font-family="Helvetica,sans-Serif" font-size="10.00" fill="#000000">ret v32</text>
</g>
<!-- block_0&#45;&gt;block_4 -->
<g id="edge2" class="edge">
<title>block_0-&gt;block_4</title>
<path fill="none" stroke="#000000" d="M436.8862,-677.9044C441.8494,-662.4553 446.4928,-645.7914 449.5,-630 464.8437,-549.4283 466.6091,-452.8815 466.2441,-401.1272"/>
<polygon fill="#000000" stroke="#000000" points="469.7436,-401.0521 466.142,-391.0882 462.744,-401.1233 469.7436,-401.0521"/>
<text text-anchor="middle" x="473.723" y="-535" font-family="Helvetica,sans-Serif" font-size="10.00" fill="#000000">False</text>
</g>
<!-- block_5 -->
<g id="node4" class="node">
<title>block_5</title>
<polygon fill="none" stroke="#000000" points="440,-514 281,-514 281,-446 440,-446 440,-514"/>
<polygon fill="none" stroke="#000000" points="291.5,-494 291.5,-508 430.5,-508 430.5,-494 291.5,-494"/>
<text text-anchor="start" x="343.7725" y="-498" font-family="Helvetica,sans-Serif" font-size="10.00" fill="#000000">block_5</text>
<text text-anchor="start" x="291.5" y="-483" font-family="Helvetica,sans-Serif" font-size="10.00" fill="#000000">let v12: u32 = load.*u32 v11</text>
<text text-anchor="start" x="291.105" y="-469" font-family="Helvetica,sans-Serif" font-size="10.00" fill="#000000">let v13: u1 = lt.u32 v12, 10_u32</text>
<text text-anchor="start" x="291.5" y="-455" font-family="Helvetica,sans-Serif" font-size="10.00" fill="#000000">branch_if v13 block_6, block_4</text>
</g>
<!-- block_2&#45;&gt;block_5 -->
<g id="edge3" class="edge">
<title>block_2-&gt;block_5</title>
<path fill="none" stroke="#000000" d="M359.0892,-561.8236C359.2909,-550.1283 359.5195,-536.8688 359.7331,-524.4806"/>
<polygon fill="#000000" stroke="#000000" points="363.235,-524.3919 359.9081,-514.333 356.2361,-524.2711 363.235,-524.3919"/>
<text text-anchor="middle" x="372.7235" y="-535" font-family="Helvetica,sans-Serif" font-size="10.00" fill="#000000">Jump</text>
</g>
<!-- block_5&#45;&gt;block_4 -->
<g id="edge5" class="edge">
<title>block_5-&gt;block_4</title>
<path fill="none" stroke="#000000" d="M391.4356,-445.8236C404.8291,-431.0269 420.489,-413.7265 433.9505,-398.8547"/>
<polygon fill="#000000" stroke="#000000" points="436.65,-401.0878 440.766,-391.3251 431.4603,-396.3902 436.65,-401.0878"/>
<text text-anchor="middle" x="428.723" y="-419" font-family="Helvetica,sans-Serif" font-size="10.00" fill="#000000">False</text>
</g>
<!-- block_6 -->
<g id="node5" class="node">
<title>block_6</title>
<polygon fill="none" stroke="#000000" points="335.5,-398 173.5,-398 173.5,-330 335.5,-330 335.5,-398"/>
<polygon fill="none" stroke="#000000" points="183.5,-378 183.5,-392 325.5,-392 325.5,-378 183.5,-378"/>
<text text-anchor="start" x="237.2725" y="-382" font-family="Helvetica,sans-Serif" font-size="10.00" fill="#000000">block_6</text>
<text text-anchor="start" x="183.5" y="-367" font-family="Helvetica,sans-Serif" font-size="10.00" fill="#000000">let v15: u32 = load.*u32 v11</text>
<text text-anchor="start" x="183.5" y="-353" font-family="Helvetica,sans-Serif" font-size="10.00" fill="#000000">let v16: u1 = gt.u32 v15, 5_u32</text>
<text text-anchor="start" x="183.0875" y="-339" font-family="Helvetica,sans-Serif" font-size="10.00" fill="#000000">branch_if v16 block_9, block_10</text>
</g>
<!-- block_5&#45;&gt;block_6 -->
<g id="edge4" class="edge">
<title>block_5-&gt;block_6</title>
<path fill="none" stroke="#000000" d="M329.2698,-445.8236C317.8346,-433.3096 304.763,-419.0048 292.7813,-405.8928"/>
<polygon fill="#000000" stroke="#000000" points="295.2027,-403.3541 285.8733,-398.333 290.0353,-408.0761 295.2027,-403.3541"/>
<text text-anchor="middle" x="321.778" y="-419" font-family="Helvetica,sans-Serif" font-size="10.00" fill="#000000">True</text>
</g>
<!-- block_9 -->
<g id="node6" class="node">
<title>block_9</title>
<polygon fill="none" stroke="#000000" points="336,-268 177,-268 177,-144 336,-144 336,-268"/>
<polygon fill="none" stroke="#000000" points="187.5,-248 187.5,-262 326.5,-262 326.5,-248 187.5,-248"/>
<text text-anchor="start" x="239.7725" y="-252" font-family="Helvetica,sans-Serif" font-size="10.00" fill="#000000">block_9</text>
<text text-anchor="start" x="187.5" y="-237" font-family="Helvetica,sans-Serif" font-size="10.00" fill="#000000">let v17: u32 = load.*u32 v11</text>
<text text-anchor="start" x="187.5" y="-223" font-family="Helvetica,sans-Serif" font-size="10.00" fill="#000000">let v18: u32 = load.*u32 v3</text>
<text text-anchor="start" x="187.389" y="-209" font-family="Helvetica,sans-Serif" font-size="10.00" fill="#000000">let v19: u32 = mul.u32 v17, v18</text>
<text text-anchor="start" x="187.5" y="-195" font-family="Helvetica,sans-Serif" font-size="10.00" fill="#000000">let v20: u32 = load.*u32 v2</text>
<text text-anchor="start" x="187.104" y="-181" font-family="Helvetica,sans-Serif" font-size="10.00" fill="#000000">let v21: u32 = add.u32 v20, v19</text>
<text text-anchor="start" x="187.5" y="-167" font-family="Helvetica,sans-Serif" font-size="10.00" fill="#000000">store.*u32 v2, v21</text>
<text text-anchor="start" x="187.5" y="-153" font-family="Helvetica,sans-Serif" font-size="10.00" fill="#000000">branch block_11</text>
</g>
<!-- block_6&#45;&gt;block_9 -->
<g id="edge6" class="edge">
<title>block_6-&gt;block_9</title>
<path fill="none" stroke="#000000" d="M254.934,-329.7164C255.1241,-314.6942 255.355,-296.4555 255.5804,-278.6499"/>
<polygon fill="#000000" stroke="#000000" points="259.0852,-278.2873 255.7121,-268.2438 252.0857,-278.1986 259.0852,-278.2873"/>
<text text-anchor="middle" x="265.778" y="-303" font-family="Helvetica,sans-Serif" font-size="10.00" fill="#000000">True</text>
</g>
<!-- block_10 -->
<g id="node7" class="node">
<title>block_10</title>
<polygon fill="none" stroke="#000000" points="159,-282 0,-282 0,-130 159,-130 159,-282"/>
<polygon fill="none" stroke="#000000" points="10.5,-262 10.5,-276 149.5,-276 149.5,-262 10.5,-262"/>
<text text-anchor="start" x="59.993" y="-266" font-family="Helvetica,sans-Serif" font-size="10.00" fill="#000000">block_10</text>
<text text-anchor="start" x="10.5" y="-251" font-family="Helvetica,sans-Serif" font-size="10.00" fill="#000000">let v22: u32 = load.*u32 v11</text>
<text text-anchor="start" x="10.5" y="-237" font-family="Helvetica,sans-Serif" font-size="10.00" fill="#000000">let v23: u32 = load.*u32 v3</text>
<text text-anchor="start" x="10.389" y="-223" font-family="Helvetica,sans-Serif" font-size="10.00" fill="#000000">let v24: u32 = mul.u32 v22, v23</text>
<text text-anchor="start" x="10.5" y="-209" font-family="Helvetica,sans-Serif" font-size="10.00" fill="#000000">let v25: u32 = load.*u32 v3</text>
<text text-anchor="start" x="10.389" y="-195" font-family="Helvetica,sans-Serif" font-size="10.00" fill="#000000">let v26: u32 = mul.u32 v24, v25</text>
<text text-anchor="start" x="10.5" y="-181" font-family="Helvetica,sans-Serif" font-size="10.00" fill="#000000">let v27: u32 = load.*u32 v2</text>
<text text-anchor="start" x="10.104" y="-167" font-family="Helvetica,sans-Serif" font-size="10.00" fill="#000000">let v28: u32 = add.u32 v27, v26</text>
<text text-anchor="start" x="10.5" y="-153" font-family="Helvetica,sans-Serif" font-size="10.00" fill="#000000">store.*u32 v2, v28</text>
<text text-anchor="start" x="10.5" y="-139" font-family="Helvetica,sans-Serif" font-size="10.00" fill="#000000">branch block_11</text>
</g>
<!-- block_6&#45;&gt;block_10 -->
<g id="edge7" class="edge">
<title>block_6-&gt;block_10</title>
<path fill="none" stroke="#000000" d="M216.5276,-329.7164C201.7504,-316.3746 184.1631,-300.4958 166.5975,-284.6366"/>
<polygon fill="#000000" stroke="#000000" points="168.8468,-281.9519 159.0789,-277.8484 164.1558,-287.1476 168.8468,-281.9519"/>
<text text-anchor="middle" x="205.723" y="-303" font-family="Helvetica,sans-Serif" font-size="10.00" fill="#000000">False</text>
</g>
<!-- block_11 -->
<g id="node8" class="node">
<title>block_11</title>
<polygon fill="none" stroke="#000000" points="342,-82 171,-82 171,0 342,0 342,-82"/>
<polygon fill="none" stroke="#000000" points="181.5,-62 181.5,-76 332.5,-76 332.5,-62 181.5,-62"/>
<text text-anchor="start" x="236.993" y="-66" font-family="Helvetica,sans-Serif" font-size="10.00" fill="#000000">block_11</text>
<text text-anchor="start" x="181.5" y="-51" font-family="Helvetica,sans-Serif" font-size="10.00" fill="#000000">let v30: u32 = load.*u32 v11</text>
<text text-anchor="start" x="181.2655" y="-37" font-family="Helvetica,sans-Serif" font-size="10.00" fill="#000000">let v31: u32 = add.u32 v30, 1_u32</text>
<text text-anchor="start" x="181.5" y="-23" font-family="Helvetica,sans-Serif" font-size="10.00" fill="#000000">store.*u32 v11, v31</text>
<text text-anchor="start" x="181.5" y="-9" font-family="Helvetica,sans-Serif" font-size="10.00" fill="#000000">branch block_5</text>
</g>
<!-- block_9&#45;&gt;block_11 -->
<g id="edge8" class="edge">
<title>block_9-&gt;block_11</title>
<path fill="none" stroke="#000000" d="M256.5,-143.6206C256.5,-126.8516 256.5,-108.9014 256.5,-92.7777"/>
<polygon fill="#000000" stroke="#000000" points="260.0001,-92.4767 256.5,-82.4767 253.0001,-92.4767 260.0001,-92.4767"/>
<text text-anchor="middle" x="268.7235" y="-103" font-family="Helvetica,sans-Serif" font-size="10.00" fill="#000000">Jump</text>
</g>
<!-- block_10&#45;&gt;block_11 -->
<g id="edge9" class="edge">
<title>block_10-&gt;block_11</title>
<path fill="none" stroke="#000000" d="M159.1975,-131.7057C174.6689,-117.2832 190.5026,-102.523 204.7823,-89.2114"/>
<polygon fill="#000000" stroke="#000000" points="207.1697,-91.7708 212.0978,-82.3919 202.3965,-86.6506 207.1697,-91.7708"/>
<text text-anchor="middle" x="201.7235" y="-103" font-family="Helvetica,sans-Serif" font-size="10.00" fill="#000000">Jump</text>
</g>
<!-- block_11&#45;&gt;block_5 -->
<g id="edge10" class="edge">
<title>block_11-&gt;block_5</title>
<path fill="none" stroke="#000000" d="M309.6236,-82.137C323.4509,-95.7675 336.656,-112.0858 344.5,-130 389.1724,-232.0236 378.1271,-367.1524 368.2141,-435.8387"/>
<polygon fill="#000000" stroke="#000000" points="364.7305,-435.4686 366.7041,-445.878 371.6526,-436.5098 364.7305,-435.4686"/>
<text text-anchor="middle" x="389.7235" y="-303" font-family="Helvetica,sans-Serif" font-size="10.00" fill="#000000">Jump</text>
</g>
</g>
</svg>