<?xml version="1.0" encoding="UTF-8" standalone="no"?>
<!DOCTYPE svg PUBLIC "-//W3C//DTD SVG 1.1//EN" "http://www.w3.org/Graphics/SVG/1.1/DTD/svg11.dtd">
<!-- Generated by graphviz version 2.40.1 (20161225.0304)
 -->
<!-- Title: %0 Pages: 1 -->
<svg width="372pt" height="1028pt" viewBox="0.00 0.00 372.00 1028.00" xmlns="http://www.w3.org/2000/svg" xmlns:xlink="http://www.w3.org/1999/xlink">
<g id="graph0" class="graph" transform="scale(1 1) rotate(0) translate(4 1024)">
<title>%0</title>
<polygon fill="#ffffff" stroke="transparent" points="-4,4 -4,-1024 368,-1024 368,4 -4,4"/>
<!-- block_0 -->
<g id="node1" class="node">
<title>block_0</title>
<polygon fill="none" stroke="#000000" points="315,-1020 157,-1020 157,-924 315,-924 315,-1020"/>
<polygon fill="none" stroke="#000000" points="167,-1000 167,-1014 305,-1014 305,-1000 167,-1000"/>
<text text-anchor="start" x="218.7725" y="-1004" font-family="Helvetica,sans-Serif" font-size="10.00" fill="#000000">block_0</text>
<text text-anchor="start" x="166.6685" y="-989" font-family="Helvetica,sans-Serif" font-size="10.00" fill="#000000">let v2: *u32 = stack_alloc.u32 1</text>
<text text-anchor="start" x="167" y="-975" font-family="Helvetica,sans-Serif" font-size="10.00" fill="#000000">store.*u32 v2, v0</text>
<text text-anchor="start" x="166.6685" y="-961" font-family="Helvetica,sans-Serif" font-size="10.00" fill="#000000">let v3: *u32 = stack_alloc.u32 1</text>
<text text-anchor="start" x="167" y="-947" font-family="Helvetica,sans-Serif" font-size="10.00" fill="#000000">store.*u32 v3, v1</text>
<text text-anchor="start" x="167" y="-933" font-family="Helvetica,sans-Serif" font-size="10.00" fill="#000000">branch block_1</text>
</g>
<!-- block_1 -->
<g id="node2" class="node">
<title>block_1</title>
<polygon fill="none" stroke="#000000" points="330,-876 142,-876 142,-794 330,-794 330,-876"/>
<polygon fill="none" stroke="#000000" points="152,-856 152,-870 320,-870 320,-856 152,-856"/>
<text text-anchor="start" x="218.7725" y="-860" font-family="Helvetica,sans-Serif" font-size="10.00" fill="#000000">block_1</text>
<text text-anchor="start" x="151.9325" y="-845" font-family="Helvetica,sans-Serif" font-size="10.00" fill="#000000">let v6: u32 = mul.u32 10_u32, 13_u32</text>
<text text-anchor="start" x="152" y="-831" font-family="Helvetica,sans-Serif" font-size="10.00" fill="#000000">let v7: u32 = load.*u32 v3</text>
<text text-anchor="start" x="152" y="-817" font-family="Helvetica,sans-Serif" font-size="10.00" fill="#000000">let v8: u1 = gt.u32 v6, v7</text>
<text text-anchor="start" x="152" y="-803" font-family="Helvetica,sans-Serif" font-size="10.00" fill="#000000">branch_if v8 block_2, block_3</text>
</g>
<!-- block_0&#45;&gt;block_1 -->
<g id="edge1" class="edge">
<title>block_0-&gt;block_1</title>
<path fill="none" stroke="#000000" d="M236,-923.6989C236,-911.5415 236,-898.4518 236,-886.1595"/>
<polygon fill="#000000" stroke="#000000" points="239.5001,-886.0595 236,-876.0596 232.5001,-886.0596 239.5001,-886.0595"/>
<text text-anchor="middle" x="248.2235" y="-897" font-family="Helvetica,sans-Serif" font-size="10.00" fill="#000000">Jump</text>
</g>
<!-- block_2 -->
<g id="node3" class="node">
<title>block_2</title>
<polygon fill="none" stroke="#000000" points="255,-746 91,-746 91,-678 255,-678 255,-746"/>
<polygon fill="none" stroke="#000000" points="101,-726 101,-740 245,-740 245,-726 101,-726"/>
<text text-anchor="start" x="155.7725" y="-730" font-family="Helvetica,sans-Serif" font-size="10.00" fill="#000000">block_2</text>
<text text-anchor="start" x="100.889" y="-715" font-family="Helvetica,sans-Serif" font-size="10.00" fill="#000000">let v11: *u32 = stack_alloc.u32 1</text>
<text text-anchor="start" x="101" y="-701" font-family="Helvetica,sans-Serif" font-size="10.00" fill="#000000">store.*u32 v11, 0_u32</text>
<text text-anchor="start" x="101" y="-687" font-family="Helvetica,sans-Serif" font-size="10.00" fill="#000000">branch block_5</text>
</g>
<!-- block_1&#45;&gt;block_2 -->
<g id="edge2" class="edge">
<title>block_1-&gt;block_2</title>
<path fill="none" stroke="#000000" d="M214.8467,-793.7006C208.4609,-781.2332 201.4369,-767.5198 194.9975,-754.9476"/>
<polygon fill="#000000" stroke="#000000" points="198.1034,-753.3338 190.4294,-746.0289 191.8731,-756.5249 198.1034,-753.3338"/>
<text text-anchor="middle" x="215.278" y="-767" font-family="Helvetica,sans-Serif" font-size="10.00" fill="#000000">True</text>
</g>
<!-- block_3 -->
<g id="node4" class="node">
<title>block_3</title>
<polygon fill="none" stroke="#000000" points="335.5,-660 248.5,-660 248.5,-620 335.5,-620 335.5,-660"/>
<polygon fill="none" stroke="#000000" points="259,-640 259,-654 326,-654 326,-640 259,-640"/>
<text text-anchor="start" x="275.2725" y="-644" font-family="Helvetica,sans-Serif" font-size="10.00" fill="#000000">block_3</text>
<text text-anchor="start" x="258.6005" y="-629" font-family="Helvetica,sans-Serif" font-size="10.00" fill="#000000">branch block_4</text>
</g>
<!-- block_1&#45;&gt;block_3 -->
<g id="edge3" class="edge">
<title>block_1-&gt;block_3</title>
<path fill="none" stroke="#000000" d="M249.3653,-793.9128C254.1377,-778.8843 259.4548,-761.7159 264,-746 271.4075,-720.3872 279.0919,-691.067 284.5323,-669.7652"/>
<polygon fill="#000000" stroke="#000000" points="287.9421,-670.5574 287.0117,-660.0035 281.1576,-668.8341 287.9421,-670.5574"/>
<text text-anchor="middle" x="271.223" y="-767" font-family="Helvetica,sans-Serif" font-size="10.00" fill="#000000">False</text>
</g>
<!-- block_5 -->
<g id="node5" class="node">
<title>block_5</title>
<polygon fill="none" stroke="#000000" points="202.5,-602 43.5,-602 43.5,-534 202.5,-534 202.5,-602"/>
<polygon fill="none" stroke="#000000" points="54,-582 54,-596 193,-596 193,-582 54,-582"/>
<text text-anchor="start" x="106.2725" y="-586" font-family="Helvetica,sans-Serif" font-size="10.00" fill="#000000">block_5</text>
<text text-anchor="start" x="54" y="-571" font-family="Helvetica,sans-Serif" font-size="10.00" fill="#000000">let v12: u32 = load.*u32 v11</text>
<text text-anchor="start" x="53.605" y="-557" font-family="Helvetica,sans-Serif" font-size="10.00" fill="#000000">let v13: u1 = lt.u32 v12, 10_u32</text>
<text text-anchor="start" x="54" y="-543" font-family="Helvetica,sans-Serif" font-size="10.00" fill="#000000">branch_if v13 block_6, block_7</text>
</g>
<!-- block_2&#45;&gt;block_5 -->
<g id="edge4" class="edge">
<title>block_2-&gt;block_5</title>
<path fill="none" stroke="#000000" d="M161.1507,-677.874C154.3199,-658.2012 145.6579,-633.2547 138.3147,-612.1062"/>
<polygon fill="#000000" stroke="#000000" points="141.5241,-610.6787 134.9375,-602.3801 134.9113,-612.9749 141.5241,-610.6787"/>
<text text-anchor="middle" x="166.2235" y="-637" font-family="Helvetica,sans-Serif" font-size="10.00" fill="#000000">Jump</text>
</g>
<!-- block_4 -->
<g id="node6" class="node">
<title>block_4</title>
<polygon fill="none" stroke="#000000" points="364,-391 226,-391 226,-337 364,-337 364,-391"/>
<polygon fill="none" stroke="#000000" points="236,-371 236,-385 354,-385 354,-371 236,-371"/>
<text text-anchor="start" x="277.7725" y="-375" font-family="Helvetica,sans-Serif" font-size="10.00" fill="#000000">block_4</text>
<text text-anchor="start" x="235.6675" y="-360" font-family="Helvetica,sans-Serif" font-size="10.00" fill="#000000">let v32: u32 = load.*u32 v2</text>
<text text-anchor="start" x="236" y="-346" font-family="Helvetica,sans-Serif" font-size="10.00" fill="#000000">ret v32</text>
</g>
<!-- block_3&#45;&gt;block_4 -->
<g id="edge5" class="edge">
<title>block_3-&gt;block_4</title>
<path fill="none" stroke="#000000" d="M292.2206,-619.7051C292.7223,-573.5517 293.9547,-460.1656 294.5966,-401.1128"/>
<polygon fill="#000000" stroke="#000000" points="298.0966,-401.1273 294.7055,-391.0898 291.097,-401.0512 298.0966,-401.1273"/>
<text text-anchor="middle" x="306.2235" y="-507" font-family="Helvetica,sans-Serif" font-size="10.00" fill="#000000">Jump</text>
</g>
<!-- block_6 -->
<g id="node7" class="node">
<title>block_6</title>
<polygon fill="none" stroke="#000000" points="162.5,-486 75.5,-486 75.5,-446 162.5,-446 162.5,-486"/>
<polygon fill="none" stroke="#000000" points="86,-466 86,-480 153,-480 153,-466 86,-466"/>
<text text-anchor="start" x="102.2725" y="-470" font-family="Helvetica,sans-Serif" font-size="10.00" fill="#000000">block_6</text>
<text text-anchor="start" x="85.6005" y="-455" font-family="Helvetica,sans-Serif" font-size="10.00" fill="#000000">branch block_8</text>
</g>
<!-- block_5&#45;&gt;block_6 -->
<g id="edge6" class="edge">
<title>block_5-&gt;block_6</title>
<path fill="none" stroke="#000000" d="M121.6569,-533.7517C121.1808,-521.6106 120.6488,-508.0446 120.1867,-496.2596"/>
<polygon fill="#000000" stroke="#000000" points="123.6747,-495.8844 119.7855,-486.0293 116.6801,-496.1588 123.6747,-495.8844"/>
<text text-anchor="middle" x="131.278" y="-507" font-family="Helvetica,sans-Serif" font-size="10.00" fill="#000000">True</text>
</g>
<!-- block_7 -->
<g id="node8" class="node">
<title>block_7</title>
<polygon fill="none" stroke="#000000" points="267.5,-486 180.5,-486 180.5,-446 267.5,-446 267.5,-486"/>
<polygon fill="none" stroke="#000000" points="191,-466 191,-480 258,-480 258,-466 191,-466"/>
<text text-anchor="start" x="207.2725" y="-470" font-family="Helvetica,sans-Serif" font-size="10.00" fill="#000000">block_7</text>
<text text-anchor="start" x="190.6005" y="-455" font-family="Helvetica,sans-Serif" font-size="10.00" fill="#000000">branch block_4</text>
</g>
<!-- block_5&#45;&gt;block_7 -->
<g id="edge7" class="edge">
<title>block_5-&gt;block_7</title>
<path fill="none" stroke="#000000" d="M156.9125,-533.7517C169.916,-520.6195 184.5701,-505.8203 196.8579,-493.4108"/>
<polygon fill="#000000" stroke="#000000" points="199.618,-495.5978 204.1671,-486.0293 194.6439,-490.6724 199.618,-495.5978"/>
<text text-anchor="middle" x="198.223" y="-507" font-family="Helvetica,sans-Serif" font-size="10.00" fill="#000000">False</text>
</g>
<!-- block_8 -->
<g id="node9" class="node">
<title>block_8</title>
<polygon fill="none" stroke="#000000" points="204,-398 42,-398 42,-330 204,-330 204,-398"/>
<polygon fill="none" stroke="#000000" points="52,-378 52,-392 194,-392 194,-378 52,-378"/>
<text text-anchor="start" x="105.7725" y="-382" font-family="Helvetica,sans-Serif" font-size="10.00" fill="#000000">block_8</text>
<text text-anchor="start" x="52" y="-367" font-family="Helvetica,sans-Serif" font-size="10.00" fill="#000000">let v15: u32 = load.*u32 v11</text>
<text text-anchor="start" x="52" y="-353" font-family="Helvetica,sans-Serif" font-size="10.00" fill="#000000">let v16: u1 = gt.u32 v15, 5_u32</text>
<text text-anchor="start" x="51.5875" y="-339" font-family="Helvetica,sans-Serif" font-size="10.00" fill="#000000">branch_if v16 block_9, block_10</text>
</g>
<!-- block_6&#45;&gt;block_8 -->
<g id="edge8" class="edge">
<title>block_6-&gt;block_8</title>
<path fill="none" stroke="#000000" d="M119.7903,-445.8481C120.2107,-435.1281 120.7453,-421.4955 121.2571,-408.4452"/>
<polygon fill="#000000" stroke="#000000" points="124.7653,-408.3001 121.66,-398.1706 117.7707,-408.0258 124.7653,-408.3001"/>
<text text-anchor="middle" x="133.2235" y="-419" font-family="Helvetica,sans-Serif" font-size="10.00" fill="#000000">Jump</text>
</g>
<!-- block_7&#45;&gt;block_4 -->
<g id="edge9" class="edge">
<title>block_7-&gt;block_4</title>
<path fill="none" stroke="#000000" d="M237.2381,-445.9464C243.3518,-436.77 250.7496,-425.7847 257.553,-416 261.2624,-410.6651 265.2284,-405.0579 269.1408,-399.5802"/>
<polygon fill="#000000" stroke="#000000" points="272.2133,-401.3018 275.2003,-391.1368 266.5262,-397.2205 272.2133,-401.3018"/>
<text text-anchor="middle" x="270.2235" y="-419" font-family="Helvetica,sans-Serif" font-size="10.00" fill="#000000">Jump</text>
</g>
<!-- block_9 -->
<g id="node10" class="node">
<title>block_9</title>
<polygon fill="none" stroke="#000000" points="363.5,-268 204.5,-268 204.5,-144 363.5,-144 363.5,-268"/>
<polygon fill="none" stroke="#000000" points="215,-248 215,-262 354,-262 354,-248 215,-248"/>
<text text-anchor="start" x="267.2725" y="-252" font-family="Helvetica,sans-Serif" font-size="10.00" fill="#000000">block_9</text>
<text text-anchor="start" x="215" y="-237" font-family="Helvetica,sans-Serif" font-size="10.00" fill="#000000">let v17: u32 = load.*u32 v11</text>
<text text-anchor="start" x="215" y="-223" font-family="Helvetica,sans-Serif" font-size="10.00" fill="#000000">let v18: u32 = load.*u32 v3</text>
<text text-anchor="start" x="214.889" y="-209" font-family="Helvetica,sans-Serif" font-size="10.00" fill="#000000">let v19: u32 = mul.u32 v17, v18</text>
<text text-anchor="start" x="215" y="-195" font-family="Helvetica,sans-Serif" font-size="10.00" fill="#000000">let v20: u32 = load.*u32 v2</text>
<text text-anchor="start" x="214.604" y="-181" font-family="Helvetica,sans-Serif" font-size="10.00" fill="#000000">let v21: u32 = add.u32 v20, v19</text>
<text text-anchor="start" x="215" y="-167" font-family="Helvetica,sans-Serif" font-size="10.00" fill="#000000">store.*u32 v2, v21</text>
<text text-anchor="start" x="215" y="-153" font-family="Helvetica,sans-Serif" font-size="10.00" fill="#000000">branch block_11</text>
</g>
<!-- block_8&#45;&gt;block_9 -->
<g id="edge10" class="edge">
<title>block_8-&gt;block_9</title>
<path fill="none" stroke="#000000" d="M157.9346,-329.7164C174.1719,-313.7816 194.0971,-294.2277 213.2716,-275.4105"/>
<polygon fill="#000000" stroke="#000000" points="215.8886,-277.7461 220.5744,-268.2438 210.9856,-272.75 215.8886,-277.7461"/>
<text text-anchor="middle" x="195.278" y="-303" font-family="Helvetica,sans-Serif" font-size="10.00" fill="#000000">True</text>
</g>
<!-- block_10 -->
<g id="node11" class="node">
<title>block_10</title>
<polygon fill="none" stroke="#000000" points="186.5,-282 27.5,-282 27.5,-130 186.5,-130 186.5,-282"/>
<polygon fill="none" stroke="#000000" points="38,-262 38,-276 177,-276 177,-262 38,-262"/>
<text text-anchor="start" x="87.493" y="-266" font-family="Helvetica,sans-Serif" font-size="10.00" fill="#000000">block_10</text>
<text text-anchor="start" x="38" y="-251" font-family="Helvetica,sans-Serif" font-size="10.00" fill="#000000">let v22: u32 = load.*u32 v11</text>
<text text-anchor="start" x="38" y="-237" font-family="Helvetica,sans-Serif" font-size="10.00" fill="#000000">let v23: u32 = load.*u32 v3</text>
<text text-anchor="start" x="37.889" y="-223" font-family="Helvetica,sans-Serif" font-size="10.00" fill="#000000">let v24: u32 = mul.u32 v22, v23</text>
<text text-anchor="start" x="38" y="-209" font-family="Helvetica,sans-Serif" font-size="10.00" fill="#000000">let v25: u32 = load.*u32 v3</text>
<text text-anchor="start" x="37.889" y="-195" font-family="Helvetica,sans-Serif" font-size="10.00" fill="#000000">let v26: u32 = mul.u32 v24, v25</text>
<text text-anchor="start" x="38" y="-181" font-family="Helvetica,sans-Serif" font-size="10.00" fill="#000000">let v27: u32 = load.*u32 v2</text>
<text text-anchor="start" x="37.604" y="-167" font-family="Helvetica,sans-Serif" font-size="10.00" fill="#000000">let v28: u32 = add.u32 v27, v26</text>
<text text-anchor="start" x="38" y="-153" font-family="Helvetica,sans-Serif" font-size="10.00" fill="#000000">store.*u32 v2, v28</text>
<text text-anchor="start" x="38" y="-139" font-family="Helvetica,sans-Serif" font-size="10.00" fill="#000000">branch block_11</text>
</g>
<!-- block_8&#45;&gt;block_10 -->
<g id="edge11" class="edge">
<title>block_8-&gt;block_10</title>
<path fill="none" stroke="#000000" d="M119.5282,-329.7164C118.393,-318.5061 117.0764,-305.5046 115.732,-292.2286"/>
<polygon fill="#000000" stroke="#000000" points="119.1908,-291.6443 114.7011,-282.0479 112.2265,-292.3497 119.1908,-291.6443"/>
<text text-anchor="middle" x="130.223" y="-303" font-family="Helvetica,sans-Serif" font-size="10.00" fill="#000000">False</text>
</g>
<!-- block_11 -->
<g id="node12" class="node">
<title>block_11</title>
<polygon fill="none" stroke="#000000" points="192.5,-82 21.5,-82 21.5,0 192.5,0 192.5,-82"/>
<polygon fill="none" stroke="#000000" points="32,-62 32,-76 183,-76 183,-62 32,-62"/>
<text text-anchor="start" x="87.493" y="-66" font-family="Helvetica,sans-Serif" font-size="10.00" fill="#000000">block_11</text>
<text text-anchor="start" x="32" y="-51" font-family="Helvetica,sans-Serif" font-size="10.00" fill="#000000">let v30: u32 = load.*u32 v11</text>
<text text-anchor="start" x="31.7655" y="-37" font-family="Helvetica,sans-Serif" font-size="10.00" fill="#000000">let v31: u32 = add.u32 v30, 1_u32</text>
<text text-anchor="start" x="32" y="-23" font-family="Helvetica,sans-Serif" font-size="10.00" fill="#000000">store.*u32 v11, v31</text>
<text text-anchor="start" x="32" y="-9" font-family="Helvetica,sans-Serif" font-size="10.00" fill="#000000">branch block_5</text>
</g>
<!-- block_9&#45;&gt;block_11 -->
<g id="edge12" class="edge">
<title>block_9-&gt;block_11</title>
<path fill="none" stroke="#000000" d="M217.3361,-143.8557C197.9573,-125.7907 177.0886,-106.3368 158.7717,-89.2618"/>
<polygon fill="#000000" stroke="#000000" points="160.7909,-86.3591 151.0896,-82.1005 156.0177,-91.4794 160.7909,-86.3591"/>
<text text-anchor="middle" x="192.2235" y="-103" font-family="Helvetica,sans-Serif" font-size="10.00" fill="#000000">Jump</text>
</g>
<!-- block_10&#45;&gt;block_11 -->
<g id="edge13" class="edge">
<title>block_10-&gt;block_11</title>
<path fill="none" stroke="#000000" d="M107,-129.7788C107,-117.1089 107,-104.2404 107,-92.3778"/>
<polygon fill="#000000" stroke="#000000" points="110.5001,-92.2424 107,-82.2424 103.5001,-92.2424 110.5001,-92.2424"/>
<text text-anchor="middle" x="119.2235" y="-103" font-family="Helvetica,sans-Serif" font-size="10.00" fill="#000000">Jump</text>
</g>
<!-- block_11&#45;&gt;block_5 -->
<g id="edge14" class="edge">
<title>block_11-&gt;block_5</title>
<path fill="none" stroke="#000000" d="M56.2825,-82.1645C42.0456,-96.013 27.7961,-112.4448 18,-130 1.0853,-160.3122 0,-171.2878 0,-206 0,-466 0,-466 0,-466 0,-491.715 16.1265,-512.1808 36.701,-527.8274"/>
<polygon fill="#000000" stroke="#000000" points="34.925,-530.8593 45.1022,-533.8046 38.9831,-525.1555 34.925,-530.8593"/>
<text text-anchor="middle" x="12.2235" y="-361" font-family="Helvetica,sans-Serif" font-size="10.00" fill="#000000">Jump</text>
</g>
</g>
</svg>